# File created by Blade
# Date/Time:  Thu Sep 25 18:39:44 2014
# Frame Rate: 120.000 fps
#------------------------------------------------------
:FULLY-SPECIFIED
:DEGREES
1468
root -0.738467 33.053718 -3.220264 7.316778 4.748265 -1.849085
Spine -8.415351 -5.171721 4.778762
Head -28.722779 9.398861 4.306375
LeftShoulder 21.219671 -36.245145 31.961765
LeftArm 102.870250 29.602160 -49.614560
LeftForeArm 16.544658 -0.000000 53.868928
LeftHand -19.365006 -0.000000 -1.951406
LeftHandThumb1 -26.253704 0.000000 33.147579
RightShoulder 8.216221 34.464401 -22.692487
RightArm 37.618717 -22.497325 98.172752
RightForeArm 11.669447 -0.000000 124.718419
RightHand 2.333812 0.000000 41.912666
RightHandThumb1 -24.326973 -0.000000 -32.862282
LeftUpLeg -2.622998 6.086179 2.303574
LeftLeg -0.530700 -0.000000 0.000000
LeftFoot -9.138085 1.339965 -9.578954
LeftToeBase 9.849706 -0.000000 -0.000000
RightUpLeg -3.336625 -6.914314 1.050750
RightLeg 2.011362 -0.000000 -0.000000
RightFoot -7.167557 -2.606012 0.853747
RightToeBase -0.492259 -0.000000 0.000000
1469
root -0.741390 33.053080 -3.219976 7.341552 4.710437 -1.860295
Spine -8.472625 -5.298242 4.745618
Head -28.471219 9.603233 4.459822
LeftShoulder 21.333467 -36.286295 32.055714
LeftArm 102.994890 29.542457 -49.561561
LeftForeArm 17.122967 0.000000 54.112194
LeftHand -19.355388 -0.000000 -1.938108
LeftHandThumb1 -26.253704 0.000000 33.147579
RightShoulder 8.128187 34.156637 -22.655325
RightArm 37.876817 -22.476263 98.006103
RightForeArm 11.629095 -0.000000 124.917695
RightHand 2.470120 -0.000000 42.151932
RightHandThumb1 -24.326973 -0.000000 -32.862282
LeftUpLeg -2.642316 6.117013 2.320630
LeftLeg -0.537523 -0.000000 0.000000
LeftFoot -9.123971 1.309644 -9.490440
LeftToeBase 9.814482 -0.000000 -0.000000
RightUpLeg -3.358992 -6.886262 1.066302
RightLeg 1.995676 -0.000000 -0.000000
RightFoot -7.156792 -2.595267 0.874874
RightToeBase -0.513787 -0.000000 0.000000
1470
root -0.742709 33.053163 -3.219483 7.358395 4.653684 -1.862212
Spine -8.509302 -5.383106 4.688110
Head -28.253038 9.782708 4.637800
LeftShoulder 21.450257 -36.352686 32.115433
LeftArm 103.103672 29.549143 -49.550566
LeftForeArm 17.652665 -0.000000 54.325071
LeftHand -19.483677 0.000000 -1.682457
LeftHandThumb1 -26.253704 0.000000 33.147579
RightShoulder 7.962109 34.004437 -22.628284
RightArm 37.937697 -22.460359 97.931894
RightForeArm 11.564567 -0.000000 125.109557
RightHand 2.124199 0.000000 42.451181
RightHandThumb1 -24.326973 -0.000000 -32.862282
LeftUpLeg -2.652645 6.163348 2.311174
LeftLeg -0.529106 -0.000000 0.000000
LeftFoot -9.148940 1.345416 -9.571701
LeftToeBase 9.815007 -0.000000 -0.000000
RightUpLeg -3.376885 -6.845991 1.064461
RightLeg 1.991463 -0.000000 -0.000000
RightFoot -7.158314 -2.575100 0.876184
RightToeBase -0.481836 -0.000000 0.000000
1471
root -0.744528 33.053379 -3.218647 7.375883 4.599175 -1.857184
Spine -8.561088 -5.444878 4.634519
Head -27.999616 9.913450 4.767279
LeftShoulder 21.641516 -36.393524 32.116450
LeftArm 103.132455 29.568430 -49.592870
LeftForeArm 18.312987 -0.000000 54.639861
LeftHand -19.314817 0.000000 -1.812034
LeftHandThumb1 -26.253704 0.000000 33.147579
RightShoulder 7.793421 33.837080 -22.606237
RightArm 37.983780 -22.443071 97.869273
RightForeArm 11.364911 -0.000000 125.260767
RightHand 2.295846 0.000000 42.438061
RightHandThumb1 -24.326973 -0.000000 -32.862282
LeftUpLeg -2.656868 6.177181 2.303616
LeftLeg -0.537227 -0.000000 0.000000
LeftFoot -9.150802 1.389163 -9.578890
LeftToeBase 9.840210 -0.000000 -0.000000
RightUpLeg -3.389588 -6.810017 1.059070
RightLeg 1.974485 -0.000000 -0.000000
RightFoot -7.152997 -2.551207 0.868991
RightToeBase -0.468060 -0.000000 0.000000
1472
root -0.746236 33.053242 -3.218104 7.385801 4.551037 -1.859311
Spine -8.606652 -5.518440 4.599679
Head -27.723523 10.060529 4.880952
LeftShoulder 21.983827 -36.508199 31.979123
LeftArm 103.057113 29.578524 -49.593212
LeftForeArm 18.816007 -0.000000 54.995799
LeftHand -19.499739 0.000000 -1.522580
LeftHandThumb1 -26.253704 0.000000 33.147579
RightShoulder 7.676994 33.661053 -22.588163
RightArm 37.964472 -22.359899 97.857949
RightForeArm 11.219414 -0.000000 125.388641
RightHand 2.799238 -0.000000 42.374420
RightHandThumb1 -24.326973 -0.000000 -32.862282
LeftUpLeg -2.661995 6.226644 2.302145
LeftLeg -0.530835 -0.000000 0.000000
LeftFoot -9.155447 1.384792 -9.563574
LeftToeBase 9.809251 -0.000000 -0.000000
RightUpLeg -3.406202 -6.781125 1.059388
RightLeg 1.981553 -0.000000 -0.000000
RightFoot -7.148811 -2.530258 0.874974
RightToeBase -0.527136 -0.000000 0.000000
1473
root -0.747823 33.053672 -3.216814 7.391986 4.495375 -1.861042
Spine -8.648888 -5.590447 4.554098
Head -27.451667 10.215561 5.018337
LeftShoulder 22.098319 -36.469973 32.076502
LeftArm 103.138382 29.586668 -49.693276
LeftForeArm 19.316142 -0.000000 55.330592
LeftHand -19.437493 -0.000000 -1.711106
LeftHandThumb1 -26.253704 0.000000 33.147579
RightShoulder 7.502595 33.476732 -22.520652
RightArm 37.986168 -22.343616 97.819301
RightForeArm 11.280977 -0.000000 125.503775
RightHand 2.793273 -0.000000 42.451467
RightHandThumb1 -24.326973 -0.000000 -32.862282
LeftUpLeg -2.659873 6.290528 2.300675
LeftLeg -0.529795 -0.000000 0.000000
LeftFoot -9.160473 1.372294 -9.576350
LeftToeBase 9.811996 -0.000000 -0.000000
RightUpLeg -3.412261 -6.744897 1.058662
RightLeg 1.976911 -0.000000 -0.000000
RightFoot -7.150033 -2.516245 0.862757
RightToeBase -0.486235 -0.000000 0.000000
1474
root -0.749409 33.055316 -3.215461 7.400171 4.457161 -1.860232
Spine -8.682629 -5.656286 4.485460
Head -27.222598 10.379569 5.212287
LeftShoulder 22.307114 -36.518514 32.031778
LeftArm 103.176242 29.651853 -49.715026
LeftForeArm 20.232420 -0.000000 55.586288
LeftHand -19.257961 -0.000000 -1.509943
LeftHandThumb1 -26.253704 0.000000 33.147579
RightShoulder 7.264144 33.271489 -22.437131
RightArm 38.010956 -22.395761 97.779672
RightForeArm 11.250600 -0.000000 125.590114
RightHand 2.840575 -0.000000 42.485093
RightHandThumb1 -24.326973 -0.000000 -32.862282
LeftUpLeg -2.659257 6.319151 2.304715
LeftLeg -0.538717 -0.000000 0.000000
LeftFoot -9.121253 1.340736 -9.510017
LeftToeBase 9.774816 -0.000000 -0.000000
RightUpLeg -3.412700 -6.722064 1.054474
RightLeg 1.958783 -0.000000 -0.000000
RightFoot -7.122348 -2.477674 0.890187
RightToeBase -0.483049 -0.000000 0.000000
1475
root -0.749909 33.055544 -3.214844 7.411799 4.423278 -1.855331
Spine -8.724060 -5.744722 4.443017
Head -26.991327 10.545644 5.333534
LeftShoulder 22.483749 -36.572162 32.106989
LeftArm 103.107348 29.751969 -49.959945
LeftForeArm 20.836528 -0.000000 55.994514
LeftHand -19.568716 -0.000000 -1.537957
LeftHandThumb1 -26.253704 0.000000 33.147579
RightShoulder 7.098797 33.071658 -22.358553
RightArm 38.078958 -22.423570 97.699374
RightForeArm 11.249485 -0.000000 125.696520
RightHand 2.849796 -0.000000 42.675057
RightHandThumb1 -24.326973 -0.000000 -32.862282
LeftUpLeg -2.669523 6.356045 2.290679
LeftLeg -0.523090 -0.000000 0.000000
LeftFoot -9.150880 1.354787 -9.598477
LeftToeBase 9.866046 -0.000000 -0.000000
RightUpLeg -3.427491 -6.712209 1.051031
RightLeg 1.960293 -0.000000 -0.000000
RightFoot -7.120052 -2.463987 0.866257
RightToeBase -0.484034 -0.000000 0.000000
1476
root -0.751246 33.055517 -3.214090 7.410216 4.384489 -1.849741
Spine -8.753484 -5.817972 4.390258
Head -26.733457 10.714419 5.455758
LeftShoulder 22.626972 -36.324718 31.945544
LeftArm 103.676584 29.583159 -49.489420
LeftForeArm 21.084338 -0.000000 56.044295
LeftHand -19.544037 -0.000000 -1.176434
LeftHandThumb1 -26.253704 0.000000 33.147579
RightShoulder 6.925703 32.812725 -22.289830
RightArm 38.224368 -22.480543 97.575531
RightForeArm 11.134847 -0.000000 125.813888
RightHand 2.490024 -0.000000 43.119246
RightHandThumb1 -24.326973 -0.000000 -32.862282
LeftUpLeg -2.658429 6.376308 2.282919
LeftLeg -0.527617 -0.000000 0.000000
LeftFoot -9.158790 1.379799 -9.614597
LeftToeBase 9.853958 -0.000000 -0.000000
RightUpLeg -3.431419 -6.693107 1.045000
RightLeg 1.968734 -0.000000 -0.000000
RightFoot -7.130808 -2.465223 0.853563
RightToeBase -0.456266 -0.000000 0.000000
1477
root -0.751713 33.055545 -3.213913 7.415824 4.352399 -1.855771
Spine -8.796438 -5.925955 4.374503
Head -26.473450 10.901488 5.539751
LeftShoulder 22.890443 -36.527475 31.863857
LeftArm 103.610799 29.684026 -49.537922
LeftForeArm 21.473163 -0.000000 56.312292
LeftHand -19.811873 -0.000000 -0.763818
LeftHandThumb1 -26.253704 0.000000 33.147579
RightShoulder 6.795089 32.496734 -22.252678
RightArm 38.383968 -22.540796 97.426382
RightForeArm 11.052989 -0.000000 125.913916
RightHand 2.619011 -0.000000 43.145654
RightHandThumb1 -24.326973 -0.000000 -32.862282
LeftUpLeg -2.667521 6.399217 2.284562
LeftLeg -0.505614 -0.000000 0.000000
LeftFoot -9.128915 1.384827 -9.444743
LeftToeBase 9.653011 -0.000000 -0.000000
RightUpLeg -3.440841 -6.652485 1.046684
RightLeg 1.971809 -0.000000 -0.000000
RightFoot -7.127002 -2.464909 0.855678
RightToeBase -0.482155 -0.000000 0.000000
